<svg xmlns="http://www.w3.org/2000/svg" xmlns:xlink="http://www.w3.org/1999/xlink" viewBox="0,0,256,256" width="60px" height="60px" fill-rule="nonzero"><g fill="#ffffff" fill-rule="nonzero" stroke="none" stroke-width="1" stroke-linecap="butt" stroke-linejoin="miter" stroke-miterlimit="10" stroke-dasharray="" stroke-dashoffset="0" font-family="none" font-weight="none" font-size="none" text-anchor="none" style="mix-blend-mode: normal"><g transform="scale(5.12,5.12)"><path d="M5.95313,4c-0.51172,0 -1.03125,0.1875 -1.39844,0.55469c-0.36719,0.36719 -0.55469,0.88672 -0.55469,1.39844v38.09375c0,0.50781 0.1875,1.03125 0.55469,1.39844c0.36719,0.36719 0.88672,0.55469 1.39844,0.55469h38.09375c0.50781,0 1.03125,-0.1875 1.39844,-0.55469c0.36719,-0.36719 0.55469,-0.88672 0.55469,-1.39844v-38.09375c0,-0.51172 -0.1875,-1.03125 -0.55469,-1.39844c-0.36719,-0.36719 -0.88672,-0.55469 -1.39844,-0.55469zM6,6h38v38h-38zM12.43359,20.89063v10.10938h1.96094v-4.23047h2.05859v4.23047h1.96484v-10.10937h-1.96484v4.05078h-2.05859v-4.05078zM19.46875,20.89063v1.8125h1.78125v8.29688h1.96875v-8.29687h1.79688v-1.8125zM26.41016,20.89063l-0.73437,10.10938h1.69922l0.16016,-3.51172c0.0625,-1.00391 0.12109,-2.27734 0.15234,-3.375h0.04688c0.14844,1.09766 0.41797,2.35547 0.61328,3.16797l0.83984,3.55078h1.39453l0.87109,-3.61328c0.19141,-0.77734 0.46484,-2.02344 0.64453,-3.10547h0.04297c-0.02734,1.08203 0.04688,2.38672 0.09375,3.34766l0.17578,3.53906h1.75781l-0.61719,-10.10937h-2.06641l-0.79687,3.66016c-0.26953,1.27344 -0.49609,2.41797 -0.64453,3.54297h-0.02734c-0.18359,-1.14453 -0.4375,-2.26953 -0.72266,-3.54297l-0.80859,-3.66016zM35.60938,20.89063v10.10938h4.55859v-1.66406h-2.59375v-8.44531z"></path></g></g></svg>